# xmcd
#
# Track frame offsets:
#	150
#	3843
#	27463
#	44079
#	62506
#	83897
#	98402
#	115211
#	134503
#	151667
#	166937
#	182170
#	197602
#
# Disc length: 2901 seconds
#
# Revision: 1
# Processed by: cddbd v1.5.2PL0 Copyright (c) Steve Scherf et al.
# Submitted via: audiograbber 1.83.01
#
DISCID=9e0b530d
DTITLE=Goodbye Sons - Endings With No Story
DYEAR=2005
DGENRE=Country Rock
TTITLE0=Corridor Blanco
TTITLE1=Down To The Wire
TTITLE2=White Knuckle Ride
TTITLE3=Kisses On The Ground
TTITLE4=Thin Air
TTITLE5=Good For You
TTITLE6=Come Home With Me
TTITLE7=Barstool Policies
TTITLE8=Along Those Lines
TTITLE9=Divide The Blue
TTITLE10=I´m Not Dreaming
TTITLE11=Endings With No Story
TTITLE12=Need Is A Selfish Reason
EXTD=
EXTT0=
EXTT1=
EXTT2=
EXTT3=
EXTT4=
EXTT5=
EXTT6=
EXTT7=
EXTT8=
EXTT9=
EXTT10=
EXTT11=
EXTT12=
PLAYORDER=
